<mxfile host="app.diagrams.net" modified="2021-10-30T05:32:37.507Z" agent="5.0 (Windows NT 10.0; Win64; x64) AppleWebKit/537.36 (KHTML, like Gecko) Chrome/95.0.4638.54 Safari/537.36" etag="3HO3MQl-S-e-bYmB7jns" version="15.6.2" type="github">
  <diagram id="yt76_bcJkmnAl7NNn21-" name="Page-1">
    <mxGraphModel dx="1320" dy="484" grid="1" gridSize="10" guides="1" tooltips="1" connect="1" arrows="1" fold="1" page="1" pageScale="1" pageWidth="850" pageHeight="1100" math="0" shadow="0">
      <root>
        <mxCell id="0" />
        <mxCell id="1" parent="0" />
        <mxCell id="8ZkoKAFqIA9M4nE9LBip-1" value="&lt;h1&gt;&lt;b&gt;Web Browser&lt;/b&gt;&lt;/h1&gt;" style="rounded=0;whiteSpace=wrap;html=1;strokeWidth=4;" vertex="1" parent="1">
          <mxGeometry x="40" y="60" width="200" height="60" as="geometry" />
        </mxCell>
        <mxCell id="8ZkoKAFqIA9M4nE9LBip-2" value="" style="rounded=0;whiteSpace=wrap;html=1;" vertex="1" parent="1">
          <mxGeometry x="305" y="60" width="285" height="60" as="geometry" />
        </mxCell>
      </root>
    </mxGraphModel>
  </diagram>
</mxfile>
